<?xml version="1.0" standalone="no"?>
<!DOCTYPE svg PUBLIC "-//W3C//DTD SVG 20010904//EN"
 "http://www.w3.org/TR/2001/REC-SVG-20010904/DTD/svg10.dtd">
<svg version="1.0" xmlns="http://www.w3.org/2000/svg"
 width="768.000000pt" height="593.000000pt" viewBox="0 0 768.000000 593.000000"
 preserveAspectRatio="xMidYMid meet">

<g transform="translate(0.000000,593.000000) scale(0.100000,-0.100000)"
fill="#000000" stroke="none">
<path d="M4060 5693 c-123 -23 -1428 -255 -1545 -274 -33 -6 -145 -25 -250
-44 -104 -19 -228 -41 -275 -49 -471 -82 -1010 -177 -1032 -182 l-28 -6 0
-2162 0 -2162 293 -52 c619 -110 1544 -275 2042 -362 286 -51 615 -109 730
-130 116 -21 214 -34 219 -29 15 14 25 189 26 450 l0 246 77 -13 c162 -28 345
-38 713 -38 392 -1 500 7 779 55 396 67 705 191 834 333 15 17 40 54 55 81
l27 50 -1 1505 c-1 972 -5 1545 -12 1618 -12 135 -33 178 -122 249 -204 165
-654 290 -1200 334 -269 21 -861 2 -1076 -35 l-72 -13 -4 311 c-3 171 -8 319
-13 329 -9 21 -8 21 -165 -10z m1480 -783 c257 -17 575 -89 774 -175 117 -50
214 -137 231 -207 9 -36 -23 -94 -80 -147 -114 -105 -447 -213 -785 -255 -386
-48 -1236 -43 -1389 7 -30 10 -37 18 -44 52 -9 41 -3 682 7 692 14 14 156 35
286 43 177 10 774 4 1000 -10z m1010 -1059 l0 -399 -66 -61 c-133 -125 -411
-226 -769 -280 -240 -36 -365 -44 -710 -44 -432 0 -716 23 -747 60 -10 13 -14
109 -16 425 l-3 409 23 -5 c151 -33 313 -45 663 -53 716 -15 1339 107 1565
306 25 22 48 40 53 41 4 0 7 -179 7 -399z m-3856 52 c8 -27 80 -271 160 -543
298 -1025 389 -1351 380 -1360 -5 -5 -85 -4 -201 3 l-192 11 -26 111 c-32 141
-73 275 -90 298 -22 30 -77 37 -306 37 l-217 0 -47 -195 -47 -194 -96 5 c-201
10 -242 15 -242 29 0 38 478 1754 501 1796 9 17 24 19 279 39 52 4 103 8 112
9 11 1 21 -14 32 -46z m3841 -720 c4 -10 10 -182 13 -383 l5 -365 -69 -58
c-151 -128 -429 -221 -796 -267 -420 -52 -1232 -51 -1396 3 -32 10 -38 17 -44
52 -4 22 -7 202 -7 399 l-1 359 63 -7 c34 -4 112 -12 172 -18 158 -17 929 -17
1070 0 461 55 820 159 926 268 37 38 53 42 64 17z m-1 -975 c4 -13 10 -138 13
-278 6 -286 -5 -437 -37 -500 -49 -97 -291 -200 -630 -270 -273 -56 -1057 -89
-1315 -56 -60 8 -158 18 -217 22 l-108 7 0 402 0 402 73 -13 c219 -38 929 -53
1187 -26 163 18 380 55 503 86 206 52 417 144 475 206 20 22 40 39 43 40 4 0
10 -10 13 -22z"/>
<path d="M2452 3475 c-63 -229 -159 -652 -151 -660 12 -12 323 -14 335 -3 6 7
-83 373 -150 618 l-23 85 -11 -40z"/>
</g>
</svg>
