<?xml version="1.0" standalone="no"?>
<!DOCTYPE svg PUBLIC "-//W3C//DTD SVG 20010904//EN"
 "http://www.w3.org/TR/2001/REC-SVG-20010904/DTD/svg10.dtd">
<svg version="1.0" xmlns="http://www.w3.org/2000/svg"
 width="1000.000000pt" height="1000.000000pt" viewBox="0 0 1000.000000 1000.000000"
 preserveAspectRatio="xMidYMid meet">

<g transform="translate(0.000000,1000.000000) scale(0.100000,-0.100000)"
fill="#000000" stroke="none">
<path d="M4860 8569 c-91 -15 -64 -1 -1555 -856 -297 -171 -628 -361 -735
-422 -107 -62 -267 -154 -355 -204 -132 -75 -173 -105 -236 -167 -96 -96 -153
-204 -172 -325 -18 -116 -17 -3066 1 -3175 14 -87 75 -222 129 -288 44 -54
126 -115 230 -172 67 -37 713 -409 1378 -793 434 -250 1143 -656 1181 -675
119 -60 328 -80 439 -42 116 40 237 108 2174 1227 645 373 694 409 774 560 76
145 70 9 74 1738 l4 1550 -25 98 c-29 111 -67 182 -150 273 -66 74 -125 112
-481 316 -148 85 -346 199 -440 253 -415 240 -778 448 -1005 577 -135 77 -274
157 -310 178 -209 123 -500 285 -554 310 -110 49 -228 61 -366 39z m440 -1455
c477 -58 928 -290 1270 -651 140 -148 289 -355 277 -386 -2 -7 -108 -72 -233
-144 -126 -72 -323 -185 -439 -252 -115 -67 -218 -121 -227 -121 -10 0 -41 32
-71 73 -92 123 -248 257 -377 322 -187 94 -368 127 -596 106 -247 -21 -452
-114 -633 -286 -218 -207 -331 -469 -331 -770 0 -216 63 -430 179 -605 81
-123 240 -266 382 -344 172 -94 297 -120 554 -114 169 4 185 6 272 36 233 79
411 206 555 395 32 42 62 77 66 77 19 0 895 -504 900 -518 4 -14 -108 -179
-190 -277 -252 -302 -612 -551 -958 -663 -240 -78 -374 -101 -645 -109 -169
-4 -233 -2 -325 11 -239 35 -443 98 -658 201 -222 107 -362 206 -546 385 -288
281 -469 574 -574 930 -60 207 -82 364 -82 597 0 322 61 604 191 882 116 246
233 414 424 607 185 187 341 301 582 424 343 177 798 248 1233 194z m1810
-1654 l5 -65 132 -3 132 -3 3 68 3 68 135 0 135 0 3 -67 3 -68 65 0 65 0 -3
-137 -3 -138 -62 -3 -63 -3 0 -129 0 -130 65 0 65 0 0 -140 0 -140 -65 0 -65
0 0 -65 0 -65 -140 0 -140 0 0 65 0 65 -135 0 -135 0 0 -65 0 -65 -135 0 -135
0 0 65 0 65 -70 0 -70 0 0 140 0 140 70 0 70 0 0 130 0 129 -67 3 -68 3 -3
137 -3 137 68 3 68 3 3 55 c4 85 -4 81 139 78 l128 -3 5 -65z"/>
<path d="M7114 5097 c-2 -7 -3 -65 -2 -128 l3 -114 133 -3 132 -3 0 131 0 130
-130 0 c-99 0 -132 -3 -136 -13z"/>
</g>
</svg>
