<?xml version="1.0" standalone="no"?>
<!DOCTYPE svg PUBLIC "-//W3C//DTD SVG 20010904//EN"
 "http://www.w3.org/TR/2001/REC-SVG-20010904/DTD/svg10.dtd">
<svg version="1.0" xmlns="http://www.w3.org/2000/svg"
 width="820.000000pt" height="427.000000pt" viewBox="0 0 820.000000 427.000000"
 preserveAspectRatio="xMidYMid meet">

<g transform="translate(0.000000,427.000000) scale(0.100000,-0.100000)"
fill="#000000" stroke="none">
<path d="M2665 3839 c-122 -10 -337 -50 -430 -80 -89 -29 -179 -76 -222 -115
l-38 -35 -3 -168 -3 -169 31 -35 c34 -40 155 -105 240 -130 182 -54 340 -77
593 -84 l207 -6 0 24 c0 14 7 36 16 49 22 33 96 110 106 110 4 0 30 13 57 30
105 61 325 119 536 141 61 6 116 13 123 15 8 2 12 31 12 100 0 80 -4 102 -20
129 -32 52 -142 115 -260 149 -256 73 -605 101 -945 75z"/>
<path d="M3880 3264 c-86 -8 -255 -35 -320 -50 -173 -42 -288 -93 -345 -155
-34 -37 -35 -40 -35 -123 l0 -84 73 -22 c220 -66 358 -178 376 -305 l6 -40
125 -19 c158 -23 557 -28 700 -8 325 45 483 94 589 184 47 40 61 92 61 227 0
102 -3 121 -23 156 -55 97 -238 173 -532 220 -97 16 -567 29 -675 19z"/>
<path d="M1970 2999 c0 -100 2 -120 14 -116 14 6 244 34 321 40 45 3 42 5 -65
37 -99 29 -203 84 -240 127 l-30 34 0 -122z"/>
<path d="M5072 2510 c-42 -52 -174 -113 -322 -149 -317 -76 -621 -86 -1062
-35 l-58 7 0 -206 c0 -236 -13 -210 115 -226 473 -59 1009 -3 1238 128 114 65
125 94 126 323 1 97 -2 178 -6 181 -5 2 -18 -8 -31 -23z"/>
<path d="M5083 1946 c-15 -26 -112 -84 -195 -116 -92 -36 -196 -60 -373 -87
-144 -22 -621 -25 -715 -6 -30 7 -81 15 -112 19 l-58 6 0 -205 c0 -113 4 -208
9 -211 5 -3 62 -13 127 -23 168 -24 596 -24 747 0 279 45 415 88 519 165 69
52 78 86 78 293 0 157 -7 200 -27 165z"/>
</g>
</svg>
