<?xml version="1.0" standalone="no"?>
<!DOCTYPE svg PUBLIC "-//W3C//DTD SVG 20010904//EN"
 "http://www.w3.org/TR/2001/REC-SVG-20010904/DTD/svg10.dtd">
<svg version="1.0" xmlns="http://www.w3.org/2000/svg"
 width="860.000000pt" height="515.000000pt" viewBox="0 0 860.000000 515.000000"
 preserveAspectRatio="xMidYMid meet">

<g transform="translate(0.000000,515.000000) scale(0.100000,-0.100000)"
fill="#000000" stroke="none">
<path d="M4475 4040 c-385 -385 -703 -700 -707 -700 -6 0 -652 498 -885 682
-7 6 -72 -21 -187 -79 l-176 -88 0 -885 0 -885 170 -88 c93 -48 174 -87 180
-87 7 0 666 507 888 683 10 8 176 -152 717 -693 l703 -703 438 176 439 175 3
1419 2 1419 -432 173 c-238 95 -437 175 -443 177 -5 2 -325 -311 -710 -696z
m705 -1076 l0 -726 -37 28 c-29 22 -887 688 -901 699 -4 4 921 725 931 725 4
0 7 -327 7 -726z m-2035 266 l260 -260 -268 -268 -267 -267 0 528 c0 290 3
527 8 527 4 0 124 -117 267 -260z"/>
<path d="M6147 1612 c6 -4 13 -21 16 -37 l4 -30 2 32 c0 17 7 34 14 36 6 3 -1
6 -18 6 -16 0 -25 -3 -18 -7z"/>
<path d="M6202 1585 c0 -27 2 -32 5 -15 l5 24 12 -23 c11 -20 14 -21 19 -7 4
10 3 15 -3 11 -6 -3 -10 -2 -10 2 0 5 -7 18 -15 29 -13 18 -14 16 -13 -21z"/>
<path d="M6258 1608 c-3 -7 -1 -24 3 -38 6 -22 7 -20 8 13 1 38 -3 47 -11 25z"/>
<path d="M4030 725 l0 -305 35 0 35 0 0 305 0 305 -35 0 -35 0 0 -305z"/>
<path d="M5690 903 l0 -126 -22 20 c-35 32 -63 43 -108 43 -121 0 -202 -112
-187 -257 11 -109 75 -173 172 -173 52 0 77 10 118 48 l27 26 0 -32 c0 -29 3
-32 30 -32 l30 0 0 305 0 305 -30 0 -30 0 0 -127z m-75 -127 c50 -21 75 -68
75 -141 -1 -107 -50 -175 -127 -175 -75 1 -123 62 -123 157 0 79 25 133 72
156 41 20 59 21 103 3z"/>
<path d="M2720 990 c-15 -28 4 -60 35 -60 31 0 50 32 35 60 -6 12 -21 20 -35
20 -14 0 -29 -8 -35 -20z"/>
<path d="M4414 999 c-46 -13 -91 -59 -103 -107 -19 -70 6 -128 76 -173 21 -14
62 -41 91 -60 84 -55 102 -124 45 -169 -35 -27 -120 -27 -175 0 -23 11 -43 20
-45 20 -3 0 -3 -17 -1 -37 3 -33 7 -39 38 -50 51 -17 156 -16 195 3 69 32 101
97 85 170 -11 48 -46 83 -140 139 -101 62 -125 101 -98 160 23 52 101 69 181
41 l38 -14 -3 36 c-2 29 -8 38 -28 43 -36 10 -119 9 -156 -2z"/>
<path d="M5850 991 c-16 -31 4 -63 37 -59 34 4 52 32 37 56 -16 26 -60 28 -74
3z"/>
<path d="M2170 993 c0 -5 46 -135 102 -291 l103 -283 39 3 39 3 103 280 c57
154 104 283 104 288 0 4 -15 7 -33 7 l-33 0 -89 -250 c-49 -137 -90 -248 -91
-247 -3 3 -174 489 -174 494 0 2 -16 3 -35 3 -19 0 -35 -3 -35 -7z"/>
<path d="M4743 940 c-20 -8 -23 -17 -23 -60 l0 -50 -35 0 c-31 0 -35 -3 -35
-25 0 -22 4 -25 35 -25 l35 0 0 -122 c0 -153 6 -191 36 -223 21 -23 31 -26 77
-23 48 3 52 5 55 29 3 23 0 26 -22 22 -15 -3 -37 2 -51 11 -25 16 -25 18 -25
161 l0 145 50 0 c47 0 50 2 50 25 0 23 -3 25 -50 25 l-50 0 0 60 c0 63 -4 67
-47 50z"/>
<path d="M2929 817 c-44 -30 -61 -63 -55 -110 6 -50 27 -72 108 -113 39 -20
69 -42 73 -54 22 -68 -64 -104 -148 -61 l-37 19 0 -34 c0 -41 24 -54 101 -54
96 0 149 41 149 116 0 54 -26 86 -94 118 -30 14 -62 33 -70 42 -21 20 -21 68
0 85 18 15 75 18 117 6 25 -7 27 -5 27 22 0 33 -17 41 -91 41 -32 0 -57 -7
-80 -23z"/>
<path d="M3695 825 c-22 -8 -41 -15 -42 -15 -2 0 -3 -16 -3 -35 l0 -34 33 19
c19 11 53 23 78 26 36 5 49 2 71 -15 24 -19 47 -75 35 -87 -2 -2 -43 -11 -89
-18 -47 -8 -95 -19 -106 -25 -40 -22 -62 -61 -62 -113 0 -43 4 -54 34 -84 30
-30 40 -34 86 -34 59 0 86 11 117 48 l23 27 0 -32 c0 -30 3 -33 31 -33 l30 0
-3 175 -3 175 -32 32 c-29 28 -40 32 -95 35 -39 2 -78 -3 -103 -12z m173 -247
c-5 -44 -11 -57 -42 -85 -45 -42 -95 -45 -131 -8 -28 28 -32 61 -10 92 14 20
58 34 145 47 14 2 29 4 34 5 5 0 6 -22 4 -51z"/>
<path d="M6115 821 c-50 -22 -91 -69 -105 -119 -30 -110 8 -226 89 -269 79
-42 200 -26 252 33 95 108 62 310 -58 360 -45 19 -131 17 -178 -5z m152 -48
c93 -44 99 -239 9 -294 -61 -37 -153 -14 -189 49 -24 42 -25 136 -2 185 33 69
110 95 182 60z"/>
<path d="M2720 625 l0 -205 35 0 35 0 0 205 0 205 -35 0 -35 0 0 -205z"/>
<path d="M3190 675 c0 -177 9 -213 62 -245 37 -22 116 -27 151 -9 12 6 32 23
44 38 l22 26 1 -32 c0 -30 3 -33 30 -33 l30 0 0 205 0 205 -30 0 -30 0 0 -130
c0 -88 -4 -141 -14 -164 -28 -67 -103 -96 -155 -60 -41 29 -51 72 -51 219 l0
135 -30 0 -30 0 0 -155z"/>
<path d="M4952 668 c3 -139 6 -168 22 -195 30 -48 72 -67 141 -61 50 4 63 10
87 37 l28 31 0 -30 c0 -28 3 -30 35 -30 l35 0 0 205 0 205 -35 0 -35 0 0 -142
c0 -122 -3 -147 -19 -174 -35 -57 -125 -70 -167 -23 -17 18 -19 41 -22 180
l-3 159 -36 0 -35 0 4 -162z"/>
<path d="M5860 625 l0 -205 30 0 30 0 0 205 0 205 -30 0 -30 0 0 -205z"/>
</g>
</svg>
