<?xml version="1.0" standalone="no"?>
<!DOCTYPE svg PUBLIC "-//W3C//DTD SVG 20010904//EN"
 "http://www.w3.org/TR/2001/REC-SVG-20010904/DTD/svg10.dtd">
<svg version="1.0" xmlns="http://www.w3.org/2000/svg"
 width="1280.000000pt" height="640.000000pt" viewBox="0 0 1280.000000 640.000000"
 preserveAspectRatio="xMidYMid meet">

<g transform="translate(0.000000,640.000000) scale(0.100000,-0.100000)"
fill="#000000" stroke="none">
<path d="M6741 3514 c-24 -44 -45 -96 -48 -116 l-6 -38 79 0 c84 0 386 -18
422 -25 41 -7 192 -8 191 0 -1 15 25 24 43 14 10 -5 50 -10 89 -10 39 -1 102
-9 140 -20 38 -10 97 -19 131 -19 145 0 457 -52 607 -101 44 -15 78 -20 114
-16 36 3 58 0 74 -11 16 -10 37 -13 64 -9 25 3 67 -2 110 -14 71 -20 129 -25
129 -11 0 4 18 8 40 8 27 0 40 -4 40 -13 0 -9 15 -13 51 -13 30 0 48 -4 44
-10 -3 -5 7 -12 22 -16 15 -3 81 -19 145 -35 64 -16 126 -29 137 -29 12 0 21
-4 21 -8 0 -12 99 -42 105 -32 5 8 38 -2 100 -30 32 -14 128 -27 155 -20 21 5
11 12 -62 40 -48 19 -83 37 -77 40 5 3 -76 30 -179 59 -103 30 -302 86 -442
127 -330 94 -402 112 -535 134 -111 19 -380 51 -576 69 -95 9 -256 39 -247 45
4 4 366 -13 403 -18 17 -3 71 -12 120 -21 50 -8 128 -18 175 -21 47 -3 101
-11 120 -19 19 -7 66 -16 105 -20 38 -3 171 -31 295 -61 124 -31 242 -57 262
-57 20 -1 34 -4 32 -7 -3 -2 16 -10 43 -17 26 -7 49 -10 51 -8 3 2 -9 7 -24
11 -16 4 -39 18 -51 31 -14 14 -33 23 -53 23 -17 0 -33 6 -35 13 -3 7 -24 12
-58 11 -37 0 -64 6 -93 23 -27 15 -57 23 -89 23 -30 0 -52 5 -59 14 -18 24
-154 46 -250 41 -50 -2 -86 0 -86 6 0 5 -23 9 -51 9 -27 0 -48 4 -45 9 8 12
-24 23 -38 13 -12 -9 -46 -7 -146 8 -36 6 -76 11 -90 12 -14 1 -30 6 -37 11
-19 14 -623 96 -694 94 -58 -1 -297 13 -475 29 l-71 7 -42 -79z m1864 -144 c3
-5 2 -10 -4 -10 -5 0 -13 5 -16 10 -3 6 -2 10 4 10 5 0 13 -4 16 -10z"/>
<path d="M5830 3560 c-101 -10 -281 -38 -289 -46 -3 -2 10 -20 29 -39 28 -29
34 -44 38 -91 4 -54 5 -56 31 -50 14 3 136 9 270 12 l243 7 14 33 c15 36 18
83 6 99 -4 6 -26 24 -49 42 -36 29 -50 33 -120 37 -43 2 -121 0 -173 -4z"/>
<path d="M4825 3419 c-82 -16 -184 -34 -225 -40 -41 -6 -79 -14 -85 -19 -5 -4
-50 -11 -100 -15 -49 -4 -93 -12 -96 -17 -4 -6 -51 -17 -105 -25 -86 -13 -862
-201 -1034 -251 -65 -19 -147 -57 -185 -85 -19 -15 -19 -16 8 -28 22 -10 40
-10 83 -1 36 7 63 8 80 2 14 -6 58 -13 97 -16 62 -5 80 -12 129 -45 44 -31 65
-39 100 -39 91 0 337 55 493 110 166 59 256 85 454 135 119 29 236 56 261 60
28 5 58 18 78 36 50 44 80 55 179 68 51 6 99 14 108 17 17 7 20 20 5 29 -18
11 -40 76 -40 116 0 36 -2 39 -27 38 -16 -1 -95 -14 -178 -30z"/>
<path d="M7330 2588 c-89 -9 -120 -19 -225 -69 -332 -156 -341 -608 -15 -799
102 -60 181 -80 319 -80 84 0 140 6 195 20 80 20 215 83 272 127 l34 25 0 164
0 164 -230 0 -230 0 0 -55 0 -55 168 -2 167 -3 3 -67 c3 -65 2 -69 -30 -98
-74 -67 -186 -100 -343 -100 -109 0 -186 22 -267 75 -106 70 -158 162 -158
281 0 166 115 293 308 339 62 15 86 16 165 7 106 -12 161 -29 268 -81 l76 -37
29 40 c49 66 49 63 -8 93 -182 95 -331 128 -498 111z"/>
<path d="M2150 2403 c-46 -98 -126 -266 -178 -373 -122 -252 -172 -361 -172
-371 0 -5 28 -9 63 -9 l62 0 50 105 50 104 266 1 266 0 49 -105 49 -105 68 0
c37 0 67 2 67 3 0 2 -91 188 -201 413 -111 225 -212 433 -225 462 l-23 52 -53
0 -54 0 -84 -177z m239 -207 c56 -112 101 -205 101 -208 0 -8 -385 1 -386 9
-2 9 4 25 41 108 31 70 138 295 141 295 1 0 47 -92 103 -204z"/>
<path d="M8435 2403 c-192 -39 -317 -155 -344 -320 -31 -198 86 -365 301 -427
69 -20 233 -21 303 -2 127 34 235 117 279 215 62 138 38 292 -61 402 -98 108
-309 167 -478 132z m264 -136 c64 -23 146 -95 167 -145 18 -44 18 -150 0 -193
-20 -48 -102 -124 -161 -150 -63 -28 -183 -36 -266 -19 -95 20 -180 88 -217
173 -17 39 -15 141 4 185 61 146 288 218 473 149z"/>
<path d="M4392 2398 c-120 -17 -241 -79 -293 -151 -40 -54 -56 -95 -70 -171
-32 -173 99 -365 290 -422 83 -26 246 -22 336 6 84 27 151 60 194 95 l31 27 0
134 0 134 -190 0 -190 0 0 -65 0 -65 130 0 130 0 0 -40 c0 -37 -4 -43 -46 -69
-60 -38 -130 -55 -234 -56 -100 0 -168 20 -233 70 -122 93 -131 280 -18 377
112 95 314 106 489 27 34 -16 66 -29 70 -29 4 0 22 19 40 42 l32 41 -39 24
c-63 37 -182 81 -251 92 -74 12 -90 12 -178 -1z"/>
<path d="M6075 2395 c-127 -31 -238 -112 -282 -205 -74 -160 -39 -335 89 -442
93 -77 192 -110 333 -111 247 -1 436 140 459 343 28 245 -175 431 -469 429
-44 -1 -102 -7 -130 -14z m233 -110 c87 -11 197 -91 228 -164 20 -47 18 -158
-4 -197 -61 -111 -177 -174 -320 -174 -121 0 -209 35 -273 107 -43 50 -61 97
-62 164 -1 134 114 249 271 269 56 7 75 7 160 -5z"/>
<path d="M2990 2025 l0 -375 60 0 60 0 2 280 3 280 287 -280 286 -280 66 0 66
0 0 375 0 375 -60 0 -60 0 0 -292 0 -293 -293 293 -292 292 -63 0 -62 0 0
-375z"/>
<path d="M5080 2025 l0 -375 290 0 290 0 0 60 0 60 -230 0 -230 0 0 315 0 315
-60 0 -60 0 0 -375z"/>
<path d="M9190 2025 l0 -375 290 0 290 0 0 60 0 60 -230 0 -230 0 0 315 0 315
-60 0 -60 0 0 -375z"/>
<path d="M9960 2025 l0 -376 278 3 277 3 58 28 c103 51 157 117 189 230 15 54
19 88 15 137 -10 110 -32 157 -111 236 -105 104 -118 107 -443 112 l-263 3 0
-376z m551 228 c91 -41 143 -123 142 -228 0 -108 -61 -198 -159 -235 -48 -17
-78 -20 -234 -20 l-180 0 0 256 0 257 193 -5 c165 -4 198 -7 238 -25z"/>
<path d="M2185 1234 c-26 -58 -66 -145 -90 -192 -40 -84 -151 -317 -249 -526
-25 -54 -46 -103 -46 -107 0 -5 28 -9 63 -9 l63 0 52 110 51 110 260 0 260 0
53 -107 53 -108 68 -3 c44 -2 68 1 65 7 -1 6 -104 218 -228 471 l-225 460 -51
0 -51 0 -48 -106z m206 -287 l96 -202 -195 -3 c-107 -1 -197 -1 -199 1 -2 3
25 62 59 133 35 71 78 162 95 202 18 39 35 72 40 72 4 -1 51 -92 104 -203z"/>
<path d="M3139 1152 c-114 -30 -169 -80 -190 -172 -19 -82 42 -171 143 -208
63 -23 87 -27 264 -42 136 -11 149 -14 182 -43 46 -42 19 -116 -55 -148 -61
-26 -179 -35 -255 -19 -67 14 -184 59 -220 84 -12 9 -26 16 -29 16 -4 0 -21
-22 -38 -50 l-30 -49 27 -19 c100 -71 228 -106 387 -106 133 0 194 17 274 75
74 53 106 139 82 220 -31 102 -101 136 -325 155 -88 8 -176 19 -196 24 -51 14
-80 44 -80 84 0 37 19 58 73 81 76 32 271 9 376 -44 22 -12 44 -21 49 -21 8 0
76 90 70 94 -2 1 -16 10 -31 20 -47 29 -136 56 -237 71 -120 19 -159 18 -241
-3z"/>
<path d="M4510 1152 c-6 -2 -10 -76 -10 -208 l0 -204 -250 0 -250 0 0 205 0
206 -62 -3 c-35 -2 -62 -6 -60 -10 1 -5 2 -172 2 -373 l0 -365 60 0 60 0 0
110 0 110 250 0 250 0 0 -110 0 -110 60 0 60 0 0 378 0 377 -50 0 c-27 0 -54
-1 -60 -3z"/>
<path d="M5947 1152 c-16 -3 -17 -34 -15 -375 l3 -372 58 -3 57 -3 0 281 c0
169 4 280 9 278 5 -1 138 -128 295 -280 l285 -278 65 0 66 0 0 374 0 374 -32
3 c-18 2 -45 3 -60 1 l-28 -3 0 -285 c0 -185 -4 -284 -10 -282 -5 2 -138 131
-294 287 l-284 284 -50 1 c-27 1 -56 0 -65 -2z"/>
<path d="M7298 1152 l-338 -2 0 -60 0 -60 145 0 145 0 0 -315 0 -315 60 0 60
0 0 315 0 315 145 0 145 0 0 59 c0 39 -4 60 -12 62 -7 2 -165 3 -350 1z"/>
<path d="M5153 1068 c-51 -101 -203 -392 -284 -545 -32 -62 -59 -115 -59 -118
0 -3 30 -5 67 -3 l67 3 56 105 55 105 222 3 221 2 59 -110 58 -110 68 0 c65 0
77 5 58 26 -5 5 -52 92 -104 194 -53 102 -123 235 -157 295 -33 61 -75 138
-92 173 l-32 62 -81 0 -81 0 -41 -82z m207 -188 c39 -73 68 -135 66 -137 -2
-2 -71 -2 -153 -1 l-149 3 74 143 c43 82 79 139 84 134 5 -5 40 -69 78 -142z"/>
<path d="M7850 775 l0 -376 58 3 57 3 3 373 2 372 -60 0 -60 0 0 -375z"/>
</g>
</svg>
