<?xml version="1.0" standalone="no"?>
<!DOCTYPE svg PUBLIC "-//W3C//DTD SVG 20010904//EN"
 "http://www.w3.org/TR/2001/REC-SVG-20010904/DTD/svg10.dtd">
<svg version="1.0" xmlns="http://www.w3.org/2000/svg"
 width="4680.000000pt" height="1624.000000pt" viewBox="0 0 4680.000000 1624.000000"
 preserveAspectRatio="xMidYMid meet">

<g transform="translate(0.000000,1624.000000) scale(0.100000,-0.100000)"
fill="#000000" stroke="none">
<path d="M0 8120 l0 -8120 23390 0 23390 0 0 8120 0 8120 -23390 0 -23390 0 0
-8120z m14745 5987 c811 -118 1472 -442 2020 -991 683 -684 1034 -1606 984
-2577 -25 -496 -139 -931 -360 -1372 -150 -298 -321 -544 -567 -814 l-104
-114 84 -87 c523 -544 843 -1209 945 -1962 14 -107 18 -200 18 -450 0 -355
-14 -487 -82 -780 -304 -1322 -1369 -2366 -2683 -2630 -342 -69 -78 -64 -3272
-67 l-2888 -3 0 5935 0 5935 2893 -3 c2681 -3 2901 -4 3012 -20z m11755 -982
l0 -1005 -1262 0 c-781 0 -1309 -4 -1383 -10 -694 -60 -1364 -302 -1926 -696
-176 -124 -316 -241 -488 -409 -334 -327 -561 -634 -766 -1040 -214 -422 -341
-845 -402 -1337 -24 -201 -24 -665 1 -868 93 -764 373 -1435 844 -2025 113
-142 447 -478 582 -587 520 -417 1124 -696 1758 -813 329 -61 250 -58 1705
-62 l1337 -4 0 -1005 0 -1005 -1357 4 c-1457 4 -1428 3 -1813 58 -779 111
-1535 379 -2205 782 -1402 844 -2393 2219 -2744 3807 -232 1045 -172 2168 170
3184 359 1066 1029 2025 1912 2733 943 757 2110 1212 3312 1292 66 5 706 9
1423 10 l1302 1 0 -1005z m11349 983 c-7 -13 -80 -124 -164 -248 -83 -124
-389 -580 -680 -1015 -291 -434 -682 -1019 -870 -1300 -727 -1085 -1092 -1631
-1650 -2465 -318 -476 -581 -869 -585 -873 -10 -11 -15 -3 -730 1066 l-633
947 203 303 c112 166 258 383 325 482 67 99 242 360 390 580 148 220 319 474
380 565 61 91 240 356 397 590 157 234 381 567 498 740 116 173 262 390 323
482 l112 167 1348 1 1348 0 -12 -22z m-2848 -7573 c606 -907 1495 -2239 1975
-2958 481 -719 874 -1310 874 -1312 0 -3 -606 -5 -1347 -5 l-1348 1 -645 966
c-355 532 -943 1413 -1307 1957 l-661 991 16 27 c78 125 1329 1987 1334 1985
4 -1 503 -744 1109 -1652z"/>
<path d="M10640 10709 l0 -1521 1893 5 c2088 5 1972 1 2200 68 130 38 336 139
451 220 112 79 250 216 339 334 76 101 183 309 222 429 55 171 69 267 69 466
1 138 -4 208 -17 275 -122 615 -564 1071 -1182 1218 l-90 21 -1942 3 -1943 3
0 -1521z"/>
<path d="M10928 7263 l-288 -3 0 -1518 0 -1517 1872 2 c1284 2 1904 6 1973 14
603 66 1115 492 1289 1072 49 160 61 249 60 442 -1 146 -5 200 -23 285 -65
310 -200 560 -421 780 -219 219 -459 348 -785 422 l-100 22 -1645 1 c-905 0
-1774 -1 -1932 -2z"/>
</g>
</svg>
